<svg version="1.1" id="Layer_1" xmlns="http://www.w3.org/2000/svg" xmlns:xlink="http://www.w3.org/1999/xlink" x="0px" y="0px"
                        width="100%" viewBox="0 0 1024 688" enable-background="new 0 0 1024 688" xml:space="preserve">
                    <path fill="#000000" opacity="1.000000" stroke="none" 
                        d="
                    M1025.000000,42.531342 
                        C1023.229248,38.383244 1024.102173,33.563381 1024.116699,28.854185 
                        C1024.137451,22.143877 1023.384155,15.399956 1024.789551,8.356912 
                        C1025.000000,19.354227 1025.000000,30.708456 1025.000000,42.531342 
                    z"/>
                    <path fill="#000000" opacity="1.000000" stroke="none" 
                        d="
                    M682.774597,405.921143 
                        C658.528381,418.252563 632.778687,424.916748 606.292847,430.904419 
                        C607.962646,435.565369 610.898926,438.728546 613.538574,441.991028 
                        C635.912048,469.643829 664.972900,486.915649 698.863525,496.560822 
                        C725.866516,504.245850 753.525085,506.878082 781.434570,505.545898 
                        C826.757629,503.382477 870.314209,493.019165 912.117188,475.348083 
                        C939.096924,463.943054 964.473389,449.764221 987.591003,431.680908 
                        C988.507874,430.963715 989.450134,430.267181 990.441101,429.659698 
                        C991.703064,428.886017 992.995728,428.813599 994.039001,430.045502 
                        C995.084045,431.279297 994.845337,432.620636 993.807922,433.642212 
                        C992.389893,435.038635 990.843567,436.324890 989.246216,437.516235 
                        C942.013245,472.742188 888.884644,494.194580 831.278809,505.287659 
                        C805.141052,510.320923 778.779053,512.352966 752.226501,511.294098 
                        C711.597229,509.673920 673.062500,500.702484 638.908081,477.357208 
                        C623.476990,466.809723 610.361084,453.837128 599.872192,438.380127 
                        C597.150879,434.369904 594.715881,433.061676 589.745178,434.015900 
                        C561.783447,439.383423 533.731201,444.277679 505.725647,449.419556 
                        C501.311584,450.230011 496.963989,451.424835 492.614044,452.551575 
                        C490.702942,453.046539 488.833771,453.599915 487.928650,455.822510 
                        C487.170654,457.683807 485.216797,458.070374 483.403961,458.539124 
                        C475.831116,460.497375 468.268311,462.495667 460.716614,464.533905 
                        C458.627258,465.097809 456.869690,465.775604 456.098358,468.405365 
                        C449.484802,490.953613 437.463898,510.664124 423.563812,529.329956 
                        C417.388794,537.622192 410.776917,545.607788 403.140076,552.582336 
                        C398.888245,556.465393 398.035461,561.337280 397.247711,566.434998 
                        C396.815674,569.230896 396.573395,572.055542 396.202362,574.861511 
                        C395.908234,577.085754 394.716553,578.714722 392.421051,578.851868 
                        C389.767334,579.010437 388.463715,577.123840 388.202362,574.799377 
                        C387.931244,572.388184 388.141998,569.922791 388.141998,567.757751 
                        C317.766815,623.038086 240.786285,648.095337 151.608353,619.526672 
                        C151.191040,622.845215 153.127243,625.849609 154.205521,629.025513 
                        C154.762711,630.666626 155.576477,632.319031 153.574280,633.382446 
                        C151.441040,634.515564 149.936829,633.202698 149.194580,631.399292 
                        C147.867661,628.175354 146.588654,624.887756 145.764984,621.510803 
                        C144.493652,616.298340 141.794968,612.831055 135.347626,612.054871 
                        C137.274872,617.596436 138.997864,622.816223 142.223267,627.414490 
                        C143.575500,629.342285 145.714813,631.395935 142.886230,633.307495 
                        C140.190613,635.129150 138.592941,632.473389 137.366135,630.622314 
                        C133.751358,625.168213 131.191956,619.144714 129.440811,612.891907 
                        C128.128555,608.206116 125.547531,605.083801 121.390717,602.756775 
                        C118.081024,600.903870 115.076996,598.505005 111.702705,596.187378 
                        C116.528595,621.382996 130.798172,638.936401 152.927811,650.707642 
                        C178.442505,664.279480 206.101807,670.783752 234.257751,675.434387 
                        C244.065186,677.054260 254.125320,676.626526 264.021820,674.664612 
                        C280.821808,671.334045 298.041290,669.572510 314.136780,663.482788 
                        C338.348724,654.322266 361.382080,642.752502 381.122345,625.642761 
                        C399.985901,609.292908 418.781708,592.980225 432.251129,571.333618 
                        C442.314484,555.160889 450.663605,538.170349 459.646881,521.461060 
                        C465.330963,510.888428 469.500427,500.102905 471.719055,488.412018 
                        C473.122437,481.017059 477.543121,474.631927 479.002167,467.216034 
                        C479.360992,465.392365 481.112305,464.707062 482.943390,464.855957 
                        C485.208771,465.040222 486.633423,466.391174 487.100769,468.546570 
                        C487.603821,470.866699 487.397522,473.202820 486.473022,475.416748 
                        C482.941406,483.873901 479.854828,492.459747 478.198181,501.521240 
                        C475.958405,513.771912 468.415802,523.675842 463.234955,534.612305 
                        C450.487305,561.521912 436.030670,587.634460 414.162811,608.170105 
                        C397.508728,623.809570 381.701965,640.792725 360.836700,651.486877 
                        C342.349609,660.962158 324.703735,672.125366 303.938049,676.553711 
                        C286.353912,680.303589 268.798157,684.251038 251.011765,686.803833 
                        C235.397644,689.044922 220.304382,684.209961 205.033524,681.919495 
                        C183.228470,678.648926 162.951538,670.675354 143.012238,661.811462 
                        C132.704453,657.229248 125.039024,648.849121 116.397385,641.809021 
                        C107.339439,634.429749 103.827324,624.802673 100.424202,614.591858 
                        C88.683556,579.365051 76.132034,544.386719 65.349693,508.870392 
                        C58.870266,487.527588 52.989613,466.033325 44.199436,445.511963 
                        C39.935112,435.556549 35.541973,425.669342 32.793690,415.189240 
                        C28.478546,398.734314 25.324448,382.189484 27.238173,364.929871 
                        C28.357506,354.834717 29.315943,344.702637 31.225016,334.757355 
                        C33.649284,322.128082 38.001972,309.926758 43.972664,298.589752 
                        C54.915871,277.811035 65.971191,256.906921 79.815460,237.982162 
                        C105.225777,203.246964 133.033615,170.474991 166.648453,143.134094 
                        C205.609573,111.444748 248.142807,85.917694 295.814301,69.700890 
                        C313.279053,63.759766 331.371521,59.676617 349.137482,54.605255 
                        C373.147186,47.751598 396.908936,39.930344 421.257111,34.393806 
                        C442.840027,29.486071 464.702515,24.936003 487.011322,27.071560 
                        C500.551453,28.367716 513.864746,31.883759 527.379517,33.633209 
                        C543.607788,35.733913 559.697876,38.334301 575.103088,43.928528 
                        C599.564087,52.811272 623.587891,62.689201 644.659180,78.417175 
                        C646.936646,80.117081 648.901550,80.420456 651.536011,79.618103 
                        C676.887451,71.897148 702.629883,65.844276 728.879150,62.106052 
                        C753.178894,58.645454 777.557678,57.748413 802.085999,59.469952 
                        C854.083069,63.119415 902.488586,78.971138 948.958801,101.742325 
                        C963.180969,108.711456 977.055664,116.302467 990.799988,124.149704 
                        C992.391113,125.058159 993.978943,125.980240 995.507690,126.987999 
                        C997.276978,128.154327 998.801147,129.638214 997.546814,131.924988 
                        C996.221924,134.340347 994.123291,134.254898 991.966858,133.002380 
                        C987.645081,130.491989 983.363892,127.911011 979.022278,125.435684 
                        C939.199585,102.731026 897.691650,84.043114 853.003174,73.086441 
                        C832.938171,68.166908 812.581360,65.306084 791.905090,64.095917 
                        C751.369812,61.723404 711.993225,68.165703 673.020508,78.354057 
                        C666.454590,80.070518 659.924500,81.923943 652.833618,83.862915 
                        C654.640198,86.184616 655.981445,88.208847 657.614990,89.960556 
                        C671.705872,105.070663 675.840027,124.933640 682.722473,143.364716 
                        C698.504150,185.627869 713.460815,228.198547 729.121155,270.507874 
                        C732.406616,279.384003 735.598694,288.288269 738.871704,297.162292 
                        C742.375183,306.661011 741.539673,316.216278 740.770813,325.776917 
                        C737.911316,361.332306 718.609497,385.835144 688.306763,402.770142 
                        C686.562500,403.744934 684.835938,404.751404 682.774597,405.921143 
                    M372.089905,474.541107 
                        C388.598633,472.415405 405.096649,470.164795 421.199097,465.822052 
                        C449.627533,458.155029 478.165436,450.928802 506.892426,444.479462 
                        C511.179901,443.516907 513.306030,442.013489 512.820862,437.313904 
                        C512.329224,432.552185 514.153503,428.162415 516.017822,423.846893 
                        C518.972351,417.007751 523.481445,411.224426 528.573120,405.949799 
                        C545.353088,388.566986 563.558838,372.688202 581.389221,356.418335 
                        C586.427551,351.820892 592.110107,347.904236 596.958313,343.128235 
                        C611.786987,328.520386 626.923401,314.260315 642.710571,300.691620 
                        C643.613892,299.915192 645.125366,299.367218 644.585754,297.282227 
                        C642.311646,297.282227 639.991455,297.396149 637.688110,297.248169 
                        C635.644287,297.116882 633.178223,296.537476 633.107544,294.245514 
                        C633.017578,291.328827 635.846802,291.990845 637.692810,291.867432 
                        C639.680176,291.734528 641.692566,292.003662 643.684387,291.904236 
                        C647.661621,291.705750 651.973999,291.221832 654.938232,288.846863 
                        C659.172363,285.454407 662.548950,280.969666 666.185425,276.857361 
                        C674.402222,267.565460 680.206116,256.603333 686.977356,246.324554 
                        C696.652893,231.636932 700.625732,216.093796 693.700378,198.737473 
                        C687.496704,183.189819 682.158752,167.296692 676.015381,150.390640 
                        C672.930237,170.810745 665.061768,188.121704 655.428284,204.729034 
                        C636.342590,237.631363 611.666931,266.296570 586.913025,294.893372 
                        C563.915710,321.460815 539.721802,347.015045 518.191162,374.821991 
                        C503.632446,393.624634 488.662354,412.354767 484.288818,436.799500 
                        C483.754913,439.783752 482.745239,442.748230 478.957825,441.813141 
                        C475.475555,440.953430 475.174927,437.723907 475.821320,434.858032 
                        C478.011536,425.146942 480.084198,415.492828 485.334778,406.663635 
                        C495.509460,389.554199 507.420105,373.760681 519.998657,358.416656 
                        C546.616089,325.947327 575.710815,295.617279 602.298096,263.122253 
                        C603.703003,261.405151 605.697937,259.984894 605.837585,257.562073 
                        C604.333557,256.326141 602.797119,256.446930 601.314636,256.391876 
                        C580.943481,255.635223 560.675476,256.988403 540.656677,260.639343 
                        C483.003174,271.153839 433.480530,298.131134 390.190094,336.873566 
                        C350.458069,372.431458 320.523621,415.067719 300.952911,464.797028 
                        C298.862549,470.108673 297.205750,475.590973 294.981934,482.058014 
                        C321.134308,478.202118 346.229431,477.188568 372.089905,474.541107 
                    M121.513817,461.911224 
                        C126.628510,463.906982 131.696228,466.034607 136.866074,467.875519 
                        C158.581375,475.608215 181.372055,477.475037 204.036179,479.936615 
                        C213.213501,480.933380 213.223816,480.732849 216.165909,472.287231 
                        C216.658295,470.873871 217.252045,469.491547 217.868301,468.126190 
                        C236.143478,427.637726 259.716187,390.505615 288.548584,356.717590 
                        C307.625427,334.361877 328.577515,313.911560 351.414520,295.418732 
                        C353.791412,293.494019 354.332855,292.012360 352.979523,289.210144 
                        C350.957184,285.022705 349.480377,280.574188 347.714142,276.260223 
                        C343.210999,265.261505 338.676147,254.275772 333.858734,242.567322 
                        C331.806671,248.144501 330.178253,252.852783 328.319916,257.468475 
                        C327.664215,259.097107 326.609680,261.307373 324.390686,260.375732 
                        C321.908875,259.333740 323.378662,257.301758 324.107910,255.697418 
                        C326.389740,250.677414 327.854218,245.385132 329.421722,240.122589 
                        C330.561005,236.297806 330.099915,232.790222 328.549683,229.049637 
                        C321.411011,211.824554 314.559296,194.480759 307.526733,177.211258 
                        C306.615082,174.972626 306.148956,172.405167 303.780823,170.603180 
                        C302.378723,171.429169 300.945251,172.221741 299.563293,173.095749 
                        C284.629517,182.540451 270.374115,192.938568 256.468201,203.824692 
                        C226.063171,227.627060 198.550705,254.439331 173.968964,284.182251 
                        C154.090927,308.233917 136.536636,333.905121 121.736061,361.447601 
                        C108.039185,386.936127 97.238762,413.527618 89.697266,441.464294 
                        C88.470451,446.008850 89.714638,448.560760 94.155586,450.319916 
                        C103.126556,453.873535 111.932976,457.842590 121.513817,461.911224 
                    M554.075806,203.415039 
                        C559.692566,202.749619 565.303589,202.029755 570.927185,201.428238 
                        C594.562927,198.900085 618.131470,199.862534 641.610229,203.184296 
                        C644.461121,203.587616 645.897522,203.018066 647.237610,200.664291 
                        C655.510864,186.132706 662.489746,171.120346 666.031372,154.622314 
                        C666.919128,150.487045 665.944580,148.135223 662.600159,145.836807 
                        C637.890869,128.855377 610.952515,116.960976 581.836426,109.893745 
                        C579.745667,109.386261 577.992004,109.890053 576.022400,110.275673 
                        C566.982849,112.045525 559.853882,118.092239 550.884705,120.594513 
                        C536.372131,124.643349 522.592957,131.321060 508.504333,136.889343 
                        C469.491516,152.308578 430.440674,167.628815 391.064850,182.105499 
                        C381.755432,185.528168 372.460144,188.989349 362.318359,192.743774 
                        C364.184326,193.646454 365.187134,194.135437 366.193237,194.617508 
                        C368.577850,195.760071 370.123901,197.569092 368.911377,200.182556 
                        C367.704193,202.784607 365.248138,202.222641 363.283661,201.160706 
                        C360.424957,199.615372 357.288086,199.201599 354.239349,198.437332 
                        C348.115173,196.902100 346.788727,192.644836 351.118195,187.916351 
                        C353.363556,185.464096 355.817139,183.203369 358.087341,180.772720 
                        C359.688354,179.058578 361.568634,177.764633 363.787170,178.907806 
                        C366.262115,180.183090 365.473511,182.567749 364.870026,184.682358 
                        C364.704010,185.264023 364.002655,185.788284 365.137146,186.797424 
                        C427.493256,164.526901 489.011932,139.421402 552.393799,114.666420 
                        C545.102234,110.370338 541.141907,103.673553 533.780884,103.123169 
                        C505.191376,100.985542 476.876251,103.723114 448.940063,109.726440 
                        C401.627655,119.893616 357.629272,138.537491 315.926300,162.868164 
                        C312.706543,164.746674 312.000153,166.559128 313.462250,170.088791 
                        C320.788818,187.775757 328.244263,205.426361 334.864838,223.380875 
                        C337.766022,231.248657 342.593384,236.344681 349.916809,239.600800 
                        C351.890625,240.478409 353.913788,241.248672 355.932129,242.021515 
                        C357.800598,242.736893 359.882202,243.219131 360.188110,245.678070 
                        C360.392059,247.317474 359.672882,248.698792 358.280609,249.478546 
                        C356.123383,250.686691 353.780579,250.999207 351.760895,249.271011 
                        C349.723541,247.527649 347.479340,246.485794 343.913300,245.606094 
                        C349.695770,259.937744 355.122833,273.388550 360.677002,287.154419 
                        C366.374237,284.446228 370.249878,280.727692 374.533844,277.663818 
                        C418.633087,246.124344 466.646362,222.940598 519.420105,210.118652 
                        C526.645081,208.363281 532.988770,206.368286 537.276306,199.875671 
                        C538.619873,197.841141 540.853699,195.717163 543.575623,197.006210 
                        C546.778870,198.523193 544.657166,201.329544 544.384399,203.639145 
                        C544.355164,203.887039 544.678040,204.176498 544.955505,204.646347 
                        C547.650513,204.297501 550.436646,203.936874 554.075806,203.415039 
                    M55.148323,313.604919 
                        C46.135330,336.476562 43.523724,360.381317 44.353378,384.691711 
                        C44.683289,394.358582 46.825459,403.965118 52.486519,412.127899 
                        C58.365952,420.605560 64.491219,428.954315 71.945862,436.177216 
                        C74.016998,438.183960 76.106323,440.327209 79.266769,440.903961 
                        C79.889198,438.463715 80.370926,436.359039 80.962959,434.285858 
                        C93.020447,392.062561 112.429100,353.342804 137.259796,317.296448 
                        C179.715179,255.664597 233.034607,205.343918 296.378815,165.608093 
                        C300.214539,163.201935 301.050629,161.004440 299.276306,156.750626 
                        C292.481720,140.461273 286.052155,124.019760 279.474915,107.639641 
                        C277.388672,102.444046 275.503937,97.133018 271.431641,92.522934 
                        C263.047943,96.570663 254.508514,100.017105 246.638245,104.610146 
                        C211.995010,124.827774 179.281616,147.844437 151.321350,176.736282 
                        C124.664032,204.281784 99.691559,233.381134 80.451714,266.830200 
                        C71.740601,281.974792 62.394993,296.792145 55.148323,313.604919 
                    M101.170586,566.401184 
                        C102.517006,570.163086 104.489243,573.828491 105.087662,577.705811 
                        C106.628044,587.686401 116.167152,588.039490 121.871071,593.031250 
                        C118.707916,580.495300 115.117683,568.371887 111.500183,556.256653 
                        C110.463326,552.784180 110.294861,549.503540 112.932198,546.567322 
                        C115.835693,547.505066 115.687920,550.013000 116.277542,551.926270 
                        C120.492630,565.603394 124.757011,579.268860 128.678833,593.031189 
                        C130.360016,598.930847 133.939697,602.383850 139.735916,604.002258 
                        C140.145828,602.045654 139.117355,600.423706 138.560944,598.746948 
                        C136.673645,593.059631 134.570129,587.442749 132.751297,581.734497 
                        C131.798019,578.742737 131.501724,575.684143 135.183533,573.222290 
                        C140.003571,583.224792 142.903336,593.462097 146.248199,603.495850 
                        C147.479736,607.190125 149.297241,609.341919 152.808426,610.842773 
                        C188.035110,625.900208 224.631073,628.906311 262.000854,622.414001 
                        C302.765350,615.331970 339.558960,598.740356 372.442566,573.606018 
                        C378.026215,569.338135 383.314423,564.683655 388.739136,560.207886 
                        C387.466461,559.713013 386.735748,560.042236 385.970398,560.231201 
                        C382.444275,561.101807 378.990784,562.682495 375.226776,561.346985 
                        C373.901031,560.876587 372.630859,560.285889 372.847961,558.631531 
                        C373.030487,557.240173 374.258240,556.903320 375.469666,556.798340 
                        C376.464294,556.712219 377.480072,556.807556 378.463593,556.664795 
                        C386.366913,555.517761 394.697052,554.360718 400.417480,548.554016 
                        C422.302338,526.339050 439.210022,500.771423 450.091888,471.402710 
                        C450.526794,470.228912 451.475037,469.050262 450.519592,467.657776 
                        C448.595184,467.247711 446.904572,468.147217 445.171356,468.584717 
                        C429.691956,472.491913 414.526886,477.844940 398.595245,479.678314 
                        C387.781769,480.922638 378.949280,485.095001 369.947052,491.537079 
                        C338.394653,514.116333 302.997040,528.590942 264.937592,535.937439 
                        C255.622696,537.735474 249.720810,541.705078 246.551361,550.303101 
                        C246.264160,551.082275 245.855255,551.816345 245.505142,552.572449 
                        C244.309052,555.155518 242.503738,556.778992 239.596939,555.346619 
                        C236.910950,554.023071 236.450226,551.647644 237.556366,548.971252 
                        C238.675781,546.262817 239.860428,543.581299 241.394058,540.008484 
                        C184.140366,545.740112 130.915985,535.849792 81.272835,506.570221 
                        C87.823570,526.265503 94.374313,545.960815 101.170586,566.401184 
                    M313.664154,155.032806 
                        C347.190247,135.799759 382.440796,120.666214 419.675995,110.174347 
                        C455.027985,100.213127 491.018250,95.045380 527.722229,97.122856 
                        C537.517029,97.677254 545.855225,97.425888 552.275635,89.209244 
                        C552.569580,88.833038 553.065796,88.602707 553.491943,88.344162 
                        C555.049255,87.399170 556.620056,87.108688 558.056458,88.526108 
                        C559.527405,89.977669 559.175964,91.557846 558.129150,93.046562 
                        C556.751465,95.005737 555.292175,96.907486 554.038696,98.603058 
                        C569.246216,103.851509 584.085754,105.462265 598.506531,97.194092 
                        C598.930359,96.951088 599.455994,96.890182 599.927368,96.725159 
                        C612.138672,92.450798 624.349121,88.173889 637.200684,83.672913 
                        C626.502991,76.134125 615.822327,69.513229 604.630127,64.287201 
                        C578.761047,52.208080 551.819885,43.116535 523.089722,40.624584 
                        C512.468994,39.703388 501.957062,37.167870 491.447998,36.597076 
                        C463.576416,35.083260 436.452515,40.906776 409.761749,48.356941 
                        C382.988983,55.829994 356.385681,63.909111 329.694336,71.675293 
                        C314.676544,76.044914 299.483093,79.822556 285.096588,86.188934 
                        C281.115631,87.950607 279.786316,89.396584 281.912598,93.898605 
                        C286.813416,104.275047 291.076691,114.956123 295.482971,125.561646 
                        C299.872192,136.125992 304.120209,146.748993 308.562164,157.671005 
                        C310.442444,156.717270 311.748505,156.054794 313.664154,155.032806 
                    M591.288757,424.883423 
                        C584.734924,412.261932 578.526917,399.512115 576.743286,384.674713 
                        C574.608459,388.063904 572.806946,391.037231 570.883301,393.929260 
                        C569.939880,395.347595 569.096863,397.858368 566.857849,396.355621 
                        C564.892090,395.036224 566.289062,393.001862 567.182617,391.446381 
                        C569.339539,387.691620 571.696594,384.049957 573.794983,380.264038 
                        C575.880859,376.500793 578.811829,375.985107 582.141663,378.114075 
                        C586.343079,380.800293 590.359436,383.783142 594.382385,386.737793 
                        C596.082764,387.986664 596.401733,389.777802 595.358765,391.625732 
                        C594.252014,393.586426 592.322449,393.695801 590.542786,393.045074 
                        C588.908813,392.447632 587.468384,391.320892 585.427490,390.125641 
                        C589.145996,401.410095 594.295593,411.417206 599.434753,421.447540 
                        C601.700195,425.869141 604.348145,426.319855 608.648499,424.140076 
                        C623.689575,416.515961 638.097290,407.898743 651.630676,397.837341 
                        C660.553223,391.203918 669.112854,384.151031 677.358765,375.506439 
                        C674.744019,375.762115 672.978149,376.067139 671.210999,376.074890 
                        C668.887085,376.085052 665.912964,376.199219 666.046997,372.939697 
                        C666.169434,369.961700 668.913147,370.396942 671.104675,370.507385 
                        C678.323120,370.871216 684.284912,368.738953 689.005676,362.798645 
                        C694.832336,355.466736 700.125610,347.819122 704.756226,339.706482 
                        C713.285828,324.762756 718.585571,308.672577 720.488464,291.623138 
                        C721.558960,282.031830 721.087708,272.529266 717.175903,263.206940 
                        C711.872070,250.567505 707.544373,237.518494 702.798035,224.645172 
                        C699.205688,240.776291 688.572388,252.729675 680.487366,266.020416 
                        C676.497131,272.579773 671.871704,278.729462 666.539062,284.236267 
                        C659.320312,291.690826 651.672241,298.740021 653.267334,310.622345 
                        C653.541382,312.663849 652.132935,314.047272 650.036194,314.408630 
                        C647.675903,314.815399 646.364685,313.519592 645.319397,311.569977 
                        C644.562195,310.157684 645.528564,308.159637 643.543274,306.958466 
                        C635.321716,314.227417 626.443848,320.891785 619.000610,328.890961 
                        C600.451477,348.825500 578.363586,364.818451 559.060059,383.909637 
                        C548.067017,394.781647 535.860107,404.445251 526.276672,416.710205 
                        C522.355347,421.728912 519.135193,427.389954 518.396057,433.753876 
                        C517.482117,441.621490 517.269348,442.217682 525.239502,440.543243 
                        C526.541748,440.269653 527.837280,439.960205 529.145813,439.721161 
                        C548.950623,436.103241 568.757446,432.496460 588.562439,428.879700 
                        C590.431274,428.538452 593.072632,428.850098 591.288757,424.883423 
                    M612.730591,250.338974 
                        C623.173401,237.010895 633.501770,223.603439 642.518250,208.176163 
                        C608.372742,202.730835 575.432129,206.013596 541.361511,211.457047 
                        C544.456787,213.213791 546.379944,214.194931 548.185852,215.358002 
                        C550.463074,216.824570 552.412292,218.790894 549.999084,221.392639 
                        C547.916565,223.637817 545.517334,223.665375 543.129761,221.107712 
                        C540.071045,217.830994 526.972900,214.658875 522.536133,215.739014 
                        C489.151245,223.866837 457.727997,236.953568 427.655853,253.404358 
                        C406.429108,265.016357 386.337982,278.360840 367.302155,293.310059 
                        C364.907532,295.190582 364.411316,296.771790 365.646210,299.590759 
                        C368.383301,305.838928 370.581970,312.322723 373.311951,318.574310 
                        C375.473083,323.523376 376.874817,328.851349 380.211212,334.012115 
                        C385.898956,329.216064 391.089508,324.583649 396.541870,320.283203 
                        C431.718170,292.538757 470.393768,271.585327 513.909790,260.077484 
                        C544.782166,251.913284 576.035645,248.438950 607.885132,252.472046 
                        C609.780640,252.712067 611.133423,252.345367 612.730591,250.338974 
                    M364.602203,490.083008 
                        C367.183350,488.376953 369.878601,486.805603 372.015259,483.962555 
                        C367.161530,484.423065 362.697784,484.812042 358.241791,485.275269 
                        C337.893158,487.390533 317.406342,488.240845 297.220428,491.844452 
                        C276.435211,495.555023 255.542435,496.446442 234.526733,494.409790 
                        C216.475098,492.660370 198.419754,490.947845 180.374405,489.135803 
                        C157.437134,486.832489 134.960999,482.795593 113.614990,473.416321 
                        C96.837677,466.044495 78.838684,461.419647 62.575611,449.473969 
                        C68.183327,462.433044 72.144051,474.260773 75.446632,486.262115 
                        C77.183105,492.572388 79.266541,497.793976 86.331039,499.487976 
                        C88.052063,499.900665 89.614861,501.095154 91.169724,502.060211 
                        C108.862076,513.041016 127.967354,520.827332 147.888062,526.562622 
                        C175.898224,534.626831 204.592880,536.243225 233.548889,534.690186 
                        C235.809509,534.568970 238.053467,534.136658 240.920563,533.770325 
                        C238.683792,531.114258 236.080414,529.667480 234.895966,527.040039 
                        C234.028168,525.114990 233.514389,523.114807 235.460922,521.585449 
                        C237.395554,520.065369 239.246552,520.873352 240.847458,522.338806 
                        C243.180084,524.474182 245.366669,526.779663 247.793335,528.799011 
                        C250.472504,531.028503 253.108521,532.632385 257.208832,532.003845 
                        C295.909607,526.071472 331.172363,511.437164 364.602203,490.083008 
                    M238.477951,447.914886 
                        C232.750595,458.780212 227.474060,469.844086 222.884171,482.169891 
                        C244.327087,484.155762 264.989716,486.804413 286.111664,482.847443 
                        C285.708008,480.232819 285.736023,478.280762 286.404572,476.340240 
                        C291.562592,461.367767 297.535675,446.739441 304.792603,432.654846 
                        C321.944366,399.365997 343.768524,369.523956 370.775696,343.536316 
                        C372.958984,341.435486 373.586761,339.608063 372.290253,336.600037 
                        C367.680450,325.904480 363.402740,315.065887 358.991821,304.284454 
                        C358.628906,303.397369 358.522644,302.283325 356.440796,301.989166 
                        C308.130554,342.620972 268.300018,390.714478 238.477951,447.914886 
                    M711.214539,378.714844 
                        C714.089722,375.257843 717.347290,372.049133 719.779175,368.304260 
                        C737.736572,340.651062 740.678223,314.920715 725.183228,287.792847 
                        C722.967651,315.479187 712.714661,339.773621 695.824646,361.167664 
                        C690.277710,368.193756 685.345337,374.809662 687.269592,384.309753 
                        C687.333801,384.626770 687.253540,384.973694 687.236145,385.306458 
                        C687.113159,387.658417 685.934387,389.176788 683.535278,389.120209 
                        C681.076477,389.062195 680.141235,387.299194 680.049927,385.055084 
                        C679.985107,383.460938 680.037415,381.862030 680.037415,379.535004 
                        C663.327209,395.610870 645.324768,408.930786 625.901184,420.384003 
                        C656.908081,412.193024 687.005188,402.253296 711.214539,378.714844 
                    M652.552307,133.881393 
                        C657.254150,136.784851 661.955994,139.688324 667.156067,142.899445 
                        C667.415161,140.958694 667.632629,140.004120 667.657471,139.044586 
                        C668.182251,118.723518 658.872070,102.836311 645.092529,88.943695 
                        C643.222290,87.058090 641.313782,87.446678 639.143860,88.185181 
                        C630.954895,90.972183 622.713379,93.605515 614.533630,96.418495 
                        C605.798035,99.422607 597.109924,102.564751 586.965393,106.154694 
                        C610.695618,112.926765 631.930603,121.783104 652.552307,133.881393 
                    M560.218201,105.510994 
                        C558.155334,105.378593 556.092468,105.246201 553.807678,105.099556 
                        C559.279236,112.855835 561.107178,113.109894 569.169067,107.511192 
                        C566.637451,106.078491 563.669739,106.575623 560.218201,105.510994 
                    z"/>
                    <path fill="#000000" opacity="1.000000" stroke="none" 
                        d="
                    M101.165619,492.201904 
                        C101.406151,493.224457 101.556870,493.871857 101.716919,494.516907 
                        C102.256264,496.690582 102.822624,499.142303 99.934944,499.851288 
                        C97.293945,500.499725 96.651009,498.035583 96.127953,496.166168 
                        C94.921860,491.855499 93.786102,487.514740 92.901955,483.129669 
                        C92.556541,481.416504 92.554245,479.448151 94.314415,477.826324 
                        C96.250191,477.761810 97.916740,480.609192 100.561943,478.499329 
                        C101.781784,477.526398 102.865944,479.814880 103.321312,481.236725 
                        C103.954376,483.213501 105.644394,485.233215 103.846069,487.293640 
                        C102.514969,488.818695 101.134773,487.644501 99.366394,486.432800 
                        C100.037407,488.544434 100.558739,490.185028 101.165619,492.201904 
                    z"/>
                </svg>